<svg version="1.1" xmlns="http://www.w3.org/2000/svg" xmlns:xlink="http://www.w3.org/1999/xlink" x="0px" y="0px" viewBox="0 0 1366 768" style="enable-background:new 0 0 1366 768;" xml:space="preserve" height="150" width="267">
<style type="text/css">
	.st0{display:none;}
	.st1{display:inline;fill:#FFFFFF;}
	.st2{display:inline;}
	.st3{display:none;fill:#FFFFFF;stroke:#000000;stroke-miterlimit:10;}
	.st4{fill:#8A85A2;}
	.st5{fill:#FFC1B5;}
	.st6{fill:#FF8417;}
	.st7{fill:#FFEDA9;}
	.st8{fill:#2D2628;}
	.st9{fill:#033F00;}
	.st10{fill:#8F7C5C;}
</style>
<g id="Layer_2">
</g>
<g id="Layer_1">
	<g class="st0">
		<path class="st1" d="M870,205.5c-16.82,0-30.5-12.56-30.5-28c0-9.41,5.11-18.14,13.66-23.35c5-3.04,10.82-4.65,16.84-4.65
			c16.82,0,30.5,12.56,30.5,28S886.82,205.5,870,205.5z"></path>
		<path class="st2" d="M870,150c16.54,0,30,12.34,30,27.5S886.54,205,870,205s-30-12.34-30-27.5c0-9.24,5.02-17.8,13.42-22.92
			C858.34,151.58,864.07,150,870,150 M870,149c-6.32,0-12.2,1.74-17.1,4.72c-8.38,5.1-13.9,13.85-13.9,23.78
			c0,15.74,13.88,28.5,31,28.5s31-12.76,31-28.5S887.12,149,870,149L870,149z"></path>
	</g>
	<path class="st3" d="M886.5,148.5c0,0,17-3,28,77l-14,7l-14-34c0,0,11.05-19.38,6.53-31.19c0,0-20.41,25.31-46.53-7.81
		C846.5,159.5,835.5,146.5,886.5,148.5z"></path>
	<ellipse class="st3" cx="248" cy="26.5" rx="31.5" ry="30"></ellipse>
	<path class="st3" d="M358.5,464.5c0,0,10.24-5.62,16.43-13.01c3.33-3.98,9.47-3.89,12.62,0.23l38.12,49.76l-42.31,1.28
		C383.36,502.77,359.5,482.5,358.5,464.5z"></path>
</g>
<g id="Layer_3">
	<g>
		<g>
			<polygon class="st4" points="845.26,454.13 779.68,486 706.79,387.24 814.63,339.86 			"></polygon>
			<path class="st4" d="M816.03,367.41c0,0,38.63-31.58,54.64-22.12c16.02,9.46-38.77,103.8-38.77,103.8l-7.14-27.95
				c0,0,54.13-57.84,35.52-59.71s-38.64,17.34-38.64,17.34L816.03,367.41z"></path>
			<polygon class="st4" points="645.6,419.3 747.4,432.29 761.36,460 627,434.14 			"></polygon>
			<path class="st5" d="M936.03,241.85l16.47,37.65l25-16c0,0-10.41-22.87-10.71-22.94S936.03,241.85,936.03,241.85z"></path>
			<ellipse class="st5" cx="951" cy="217.5" rx="31.5" ry="30"></ellipse>
			<path class="st6" d="M978.9,227.18c-16.6,3.68-47.44-33.33-47.44-33.33s18.13-10.76,30.58-5.05
				c12.46,5.71,18.08,17.87,18.08,17.87L978.9,227.18L978.9,227.18"></path>
			<path class="st6" d="M964.5,242.5l10,20l21.62-6.84l-17-52C977.52,203.23,985.2,229.86,964.5,242.5z"></path>
			<path class="st5" d="M915.61,321.84c0,0,0,0-20,2c-50.83,5.08-40,38-40,38l-6,128c0,0-4,40-29,46
				c-11.95,2.87-20.47,11.68-26.12,20.09c-5.05,7.54,0.66,17.06,9.73,17.32c118.48,3.41,108.42-7.88,108.38-13.41
				C912.59,556.84,915.61,321.84,915.61,321.84z"></path>
			<path class="st7" d="M851,450l30.05-2.58c0,0-1.15,107.52-1.35,107.3c-0.2-0.22-65.72,15.76-65.72,15.76l-20.05-0.69
				c0,0-11.57-15.29,18.67-32.49c31.26-17.79,33.2-27.26,34.4-45.29c2-30-1,10,1-15S851,450,851,450z"></path>
			<path class="st5" d="M933.5,551.5c0.43,3.32,17.87,12.79-102.38,19.41c-9.07,0.5-14.79-9.78-9.74-17.32
				c5.65-8.41,14.17-17.22,26.12-20.09c25-6,29-46,29-46l6-128c0,0-10.83-32.92,40-38c20-2,2,3,2,3S933.11,548.52,933.5,551.5z"></path>
			<path class="st8" d="M895.73,582.99L895.73,582.99c-6.08,6.79-16.51,7.37-23.3,1.29l-44.71-40.01
				c-6.79-6.08-15.3-9.97-10.5-15.48l17-14c7.36-8.07,8.72-1.19,15.51,4.89l44.71,40.01C901.23,565.76,901.8,576.2,895.73,582.99z"></path>
			<path class="st7" d="M875.5,468.5c0,0,54.5-5,55-5s5,101,5,101s-7.6,5.12-5,6s-90.05,2.17-104.38,3.41
				c-11.13,0.96-24.15-12.56,6.63-33.76c6.76-4.65,27.14-8.67,32.76-20.65C874.56,500.15,875.5,468.5,875.5,468.5z"></path>
			<path class="st4" d="M1015.24,342.83c0,0,14.21-9.14,13.4-12.46c-0.81-3.32,75.71,73.25,77.34,148.6
				c1.62,75.34,25.16,120.06-24.23,119.07c-15.43-0.31-102.26,2.95-104.7,1.84c-2.44-1.11-42.07-31.94-45.32-88.44
				c-3.25-56.51-5.59-56.09-5.59-56.09L914.5,327.31c0,0,26.81-8.86,26.81-12.19c0-3.32,29.25,59.83,29.25,59.83L1015.24,342.83z"></path>
			<path class="st9" d="M939.22,314.97c0.24,1.72-0.95-72.58,64.78-49.97c0.22,0.08,7.81,7.87,8,8c2.83,1.94,45.06,52.1,34.5,66.5
				c-9.7,13.24-70,41-70,41L939.22,314.97z"></path>
			<path class="st8" d="M918.65,585.01L918.65,585.01c-6.08,6.79-16.51,7.37-23.3,1.29l-44.71-40.01
				c-6.79-6.08-16.22-10-10.14-16.79l17-11c6.08-6.79,8.36-2.88,15.15,3.2l44.71,40.01C924.15,567.79,924.73,578.22,918.65,585.01z"></path>
			<polygon class="st8" points="789.5,569.49 789.85,600.5 945.5,596.5 947.5,566.5 			"></polygon>
			<path class="st5" d="M975.5,297.5c0,0,25-39.47,40,6.17l-27.63,82.66c-4.55,13.62-18.99,17.05-27.24,6.4
				c-21.08-27.23-40.42-65.63-40.42-65.63s-7.72-28.37,19.28-12.33l31,33.3L975.5,297.5z"></path>
			<path class="st5" d="M946,287c-6.3,4.41,33,2,38-25c0,0-20.31-9.08-33,12C942.35,288.37,946,287,946,287z"></path>
			<path class="st9" d="M969.92,325.9c0,0,36.22,9.35,35.9,8.97c-0.32-0.37,16.4-36.12,11.54-39.74
				c-4.86-3.63-8.42-29.71-25.64-16.67c-17.22,13.04-10.22-8.97-16.22,19.04C969.5,325.5,969.92,325.9,969.92,325.9z"></path>
			<path class="st9" d="M515,180c0,0-13-31-33-20c-16.87,9.28-74.67,66.84-40,68s38.42-5.55,59-23"></path>
			<path class="st9" d="M629.28,267.48c0,0-24.39-39.23-50.72-23.54c-26.34,15.69-71.21,58.85-39.02,51
				c32.19-7.85,27.31-20.6,50.72-20.6S634.15,291.02,629.28,267.48z"></path>
			<path class="st9" d="M493.62,377.4c13.66-19.62,22.43-30.4,41.94-16.67s54.17,1.16,36.09,26.48
				c-28.85,40.41-27.86,32.6-56.58,0.98C495.07,366.17,493.62,377.4,493.62,377.4z"></path>
			<path class="st9" d="M433.14,282.27c0,0-27.31-27.46-47.8-8.83s-25.36,32.37-25.36,32.37s-5.85,40.21,16.58,23.54
				c22.43-16.67,8.78-17.65,35.12-25.5C438.02,296,433.14,282.27,433.14,282.27z"></path>
			<path class="st9" d="M424.08,401.64c13.15-2.6,21.24-16.46,33.56-21.77c15.04-6.48,38.66-0.64,14.51,16.17
				c-38.04,26.48-48.3,67.58-62.43,58.85C393.55,444.88,381.17,410.12,424.08,401.64z"></path>
			<polygon class="st9" points="501.05,462.16 495.33,460.88 534.96,281.86 540.67,283.14 			"></polygon>
			
				<rect x="488.74" y="194" transform="matrix(-1 -1.224647e-16 1.224647e-16 -1 984.307 658.6923)" class="st9" width="6.83" height="270.69"></rect>
			<polygon class="st9" points="426.72,290.97 432.25,289.04 491.91,462.36 486.37,464.29 			"></polygon>
			<path class="st10" d="M547.11,599h-97c-13.14,0-23.8-10.65-23.8-23.8V445.02H573.6v127.49C573.6,587.14,561.74,599,547.11,599z"></path>
		</g>
	</g>
</g>
</svg>