<svg id="Layer_2" enable-background="new 0 0 24 24" height="512" viewBox="0 0 24 24" width="512" xmlns="http://www.w3.org/2000/svg"><g><path d="m16 9c-.382 0-.746-.144-1.023-.406l-6.497-5.997c-.303-.274-.48-.675-.48-1.097 0-.827.673-1.5 1.5-1.5h13c.827 0 1.5.673 1.5 1.5 0 .422-.177.823-.485 1.101l-6.495 5.996c-.274.259-.638.403-1.02.403zm-6.5-8c-.276 0-.5.224-.5.5 0 .141.055.269.155.359l6.504 6.004c.19.18.495.176.678.003l6.504-6.003c.104-.094.159-.222.159-.363 0-.276-.224-.5-.5-.5z"/></g><g><path d="m22.5 24h-13c-.827 0-1.5-.673-1.5-1.5 0-.422.177-.823.485-1.101l6.496-5.996c.548-.518 1.487-.521 2.043.003l6.496 5.997c.303.274.48.675.48 1.097 0 .827-.673 1.5-1.5 1.5zm-6.5-8c-.126 0-.246.047-.337.134l-6.504 6.003c-.104.094-.159.222-.159.363 0 .276.224.5.5.5h13c.276 0 .5-.224.5-.5 0-.141-.055-.269-.155-.359l-6.504-6.004c-.095-.09-.215-.137-.341-.137z"/></g><g><path d="m22.5 12.5h-13c-.276 0-.5-.224-.5-.5s.224-.5.5-.5h13c.276 0 .5.224.5.5s-.224.5-.5.5z"/></g><g><path d="m6.5 21h-6c-.276 0-.5-.224-.5-.5s.224-.5.5-.5h5.5v-5.5c0-.276.224-.5.5-.5s.5.224.5.5v6c0 .276-.224.5-.5.5z"/></g><g><path d="m6.5 21c-.054 0-.109-.009-.163-.027-3.791-1.307-6.337-4.813-6.337-8.723s2.546-7.416 6.337-8.723c.261-.09.545.048.636.31.09.261-.048.546-.31.636-3.387 1.168-5.663 4.294-5.663 7.777s2.276 6.609 5.663 7.777c.261.09.399.375.31.636-.072.207-.265.337-.473.337z"/></g></svg>