<svg xmlns="http://www.w3.org/2000/svg" xmlns:xlink="http://www.w3.org/1999/xlink" version="1.1" width="519.479" height="519.479" style="enable-background:new 0 0 519.479 519.479;" xml:space="preserve"><rect id="backgroundrect" width="100%" height="100%" x="0" y="0" fill="none" stroke="none"/>
















<g class="currentLayer" style=""><title>Layer 1</title><g id="svg_1" class="selected" fill="#000000" fill-opacity="1">
	<g id="svg_2" fill="#000000" fill-opacity="1">
		<path d="M193.441,0h-75.484c-16.897,0-30.6,13.703-30.6,30.6v458.277c0,16.898,13.703,30.602,30.6,30.602h75.484    c16.897,0,30.6-13.703,30.6-30.602V30.6C224.042,13.703,210.339,0,193.441,0z" fill="#000000" id="svg_3" fill-opacity="1"/>
		<path d="M401.521,0h-75.484c-16.896,0-30.6,13.703-30.6,30.6v458.277c0,16.898,13.703,30.602,30.6,30.602h75.484    c16.896,0,30.6-13.703,30.6-30.602V30.6C432.121,13.703,418.418,0,401.521,0z" fill="#000000" id="svg_4" fill-opacity="1"/>
	</g>
</g><g id="svg_5">
</g><g id="svg_6">
</g><g id="svg_7">
</g><g id="svg_8">
</g><g id="svg_9">
</g><g id="svg_10">
</g><g id="svg_11">
</g><g id="svg_12">
</g><g id="svg_13">
</g><g id="svg_14">
</g><g id="svg_15">
</g><g id="svg_16">
</g><g id="svg_17">
</g><g id="svg_18">
</g><g id="svg_19">
</g></g></svg>