<svg xmlns="http://www.w3.org/2000/svg" height="682.667" viewBox="0 -48 512 512" width="682.667"  fill="#4bcffa" xmlns:v="https://vecta.io/nano"><path d="M190.246 225.516a9.96 9.96 0 0 1-4.891-1.277 9.99 9.99 0 0 1-5.109-8.723V105.242a9.99 9.99 0 0 1 5.109-8.723c3.152-1.77 7.02-1.699 10.109.191l90.121 55.137c2.969 1.816 4.781 5.051 4.781 8.531s-1.812 6.715-4.781 8.531l-90.121 55.137a9.99 9.99 0 0 1-5.219 1.469zm10-102.434v74.594l60.961-37.297zM492 215.551h-21.391V30c0-16.539-13.449-30-30-30H30C13.461 0 0 13.461 0 30v260.762c0 16.539 13.461 30 30 30h281.75V396c0 11.031 8.98 20 20 20H492c11.031 0 20-8.969 20-20V235.551c0-11.031-8.969-20-20-20zm-180.25 20v65.211H30a10.02 10.02 0 0 1-10-10V30c0-5.512 4.488-10 10-10h410.609a10.01 10.01 0 0 1 10 10v185.551H331.75c-11.02 0-20 8.969-20 20zM492 396H331.75V235.551H492zM140.68 279.652H50.555a10 10 0 1 1 0-20h90.125c5.52 0 10 4.477 10 10s-4.48 10-10 10zm35.066 0a10.01 10.01 0 0 1-10.008-10 10 10 0 0 1 9.996-10h.012a10 10 0 1 1 0 20zm0 0"/><path d="M384.07 267.48v-11.75c0-5.52-4.48-10-10-10a10 10 0 0 0-10 10v11.75c-11.648 4.109-20 15.238-20 28.281s8.352 24.168 20 28.289v51.77a10 10 0 0 0 10 10c5.52 0 10-4.48 10-10v-51.77c11.641-4.121 20-15.25 20-28.289s-8.359-24.172-20-28.281zm-10 38.301c-5.52 0-10-4.5-10-10.02s4.48-10.012 10-10.012c5.508 0 10 4.488 10 10.012a10.03 10.03 0 0 1-10 10.02zm80 1.719v-51.77c0-5.52-4.48-10-10-10a10 10 0 0 0-10 10v51.77c-11.648 4.121-20 15.25-20 28.289s8.352 24.172 20 28.289v11.742a10 10 0 0 0 10 10c5.52 0 10-4.48 10-10v-11.742c11.641-4.117 20-15.25 20-28.289s-8.359-24.168-20-28.289zm-10 38.301c-5.52 0-10-4.492-10-10.012s4.48-10.008 10-10.008a10.02 10.02 0 0 1 10 10.008c0 5.52-4.492 10.012-10 10.012zm0 0"/></svg>