<svg xmlns="http://www.w3.org/2000/svg" viewBox="0 0 512 512"  xmlns:v="https://vecta.io/nano"><path fill="#33d9b2" d="M437.02 75.112C388.667 26.76 324.38.133 256 .133c-41.218 0-82.189 10.033-118.485 29.016C116.586 40.094 97.191 54.029 80 70.302V.133H40v140h140v-40h-73.338c39.887-38.075 93.411-60 149.338-60 119.102 0 216 96.896 216 215.999-.001 6.632-.304 13.317-.901 19.87l39.836 3.628A260.53 260.53 0 0 0 512 256.135l-20-.002h20c0-68.381-26.629-132.667-74.98-181.021z"/><path d="M512 256.132h0v.001z"/><path d="M87.724 391.566l-31.145 25.101a258.11 258.11 0 0 0 29.92 31.315l26.494-29.967c-9.126-8.069-17.628-16.966-25.269-26.449zm-35.505-63.623l-37.727 13.296c4.794 13.601 10.796 26.896 17.842 39.517l34.926-19.497a215.47 215.47 0 0 1-15.041-33.316zM40 256.133H0c0 14.47 1.22 28.986 3.624 43.145l39.436-6.698C41.029 280.627 40 268.365 40 256.133zm102.33 183.708l-21.082 33.993a255.91 255.91 0 0 0 38.618 19.629l15.029-37.069a215.7 215.7 0 0 1-32.565-16.553zm322.387-127.86a215.22 215.22 0 0 1-12.395 34.365l36.335 16.727c6.037-13.115 10.985-26.835 14.706-40.777l-38.646-10.315zm-81.163 118.487a216.61 216.61 0 0 1-31.213 19.047l17.867 35.788c12.896-6.438 25.342-14.033 36.994-22.574l-23.648-32.261zm50.728-52.345c-6.883 10.035-14.672 19.56-23.152 28.311l28.725 27.837c10.041-10.361 19.265-21.642 27.415-33.527l-32.988-22.621zM318.37 462.995a215.37 215.37 0 0 1-35.756 7.515l4.873 39.702c14.343-1.761 28.612-4.76 42.412-8.914l-11.529-38.303zm-108.576 4.19l-8.514 39.083a256.92 256.92 0 0 0 42.953 5.6l1.809-39.959a216.98 216.98 0 0 1-36.248-4.724z" fill="#33d9b2"/></svg>