<?xml version="1.0" encoding="UTF-8" standalone="no"?>
<svg
   xmlns:dc="http://purl.org/dc/elements/1.1/"
   xmlns:cc="http://creativecommons.org/ns#"
   xmlns:rdf="http://www.w3.org/1999/02/22-rdf-syntax-ns#"
   xmlns:svg="http://www.w3.org/2000/svg"
   xmlns="http://www.w3.org/2000/svg"
   xmlns:sodipodi="http://sodipodi.sourceforge.net/DTD/sodipodi-0.dtd"
   xmlns:inkscape="http://www.inkscape.org/namespaces/inkscape"
   version="1.1"
   id="Layer_1"
   x="0px"
   y="0px"
   viewBox="0 0 122.88 114.83"
   style="enable-background:new 0 0 122.88 114.83"
   xml:space="preserve"
   sodipodi:docname="subtitle-mp4.svg"
   inkscape:version="0.92.5 (2060ec1f9f, 2020-04-08)"><metadata
     id="metadata11"><rdf:RDF><cc:Work
         rdf:about=""><dc:format>image/svg+xml</dc:format><dc:type
           rdf:resource="http://purl.org/dc/dcmitype/StillImage" /></cc:Work></rdf:RDF></metadata><defs
     id="defs9" /><sodipodi:namedview
     pagecolor="#ffffff"
     bordercolor="#666666"
     borderopacity="1"
     objecttolerance="10"
     gridtolerance="10"
     guidetolerance="10"
     inkscape:pageopacity="0"
     inkscape:pageshadow="2"
     inkscape:window-width="778"
     inkscape:window-height="480"
     id="namedview7"
     showgrid="false"
     inkscape:zoom="2.055212"
     inkscape:cx="61.439998"
     inkscape:cy="57.415"
     inkscape:window-x="0"
     inkscape:window-y="0"
     inkscape:window-maximized="0"
     inkscape:current-layer="Layer_1" /><g
     id="g4"><path
       d="M25.5,57.01c0-2.51,0.42-4.97,1.26-7.4c0.84-2.43,2.07-4.61,3.68-6.54c1.61-1.93,3.57-3.49,5.87-4.68 c2.3-1.2,4.92-1.79,7.87-1.79c3.53,0,6.59,0.82,9.18,2.46c2.59,1.64,4.52,3.81,5.79,6.51l-7.67,6.13c-0.34-1-0.8-1.83-1.36-2.49 c-0.57-0.66-1.19-1.18-1.88-1.56c-0.69-0.39-1.4-0.66-2.14-0.81c-0.74-0.15-1.45-0.23-2.14-0.23c-1.44,0-2.68,0.32-3.73,0.95 c-1.05,0.64-1.9,1.46-2.57,2.49c-0.67,1.02-1.17,2.18-1.49,3.47c-0.33,1.29-0.49,2.57-0.49,3.85c0,1.43,0.19,2.8,0.57,4.11 c0.38,1.31,0.93,2.47,1.65,3.47c0.72,1,1.6,1.8,2.65,2.4c1.05,0.6,2.22,0.9,3.52,0.9c0.69,0,1.39-0.09,2.11-0.26 c0.72-0.17,1.42-0.46,2.08-0.87s1.27-0.93,1.8-1.56c0.53-0.64,0.95-1.42,1.26-2.34l8.18,5.49c-0.55,1.5-1.38,2.85-2.5,4.05 c-1.11,1.2-2.38,2.2-3.81,3.01c-1.42,0.81-2.95,1.43-4.58,1.85c-1.63,0.42-3.22,0.64-4.76,0.64c-2.71,0-5.19-0.61-7.43-1.82 c-2.25-1.21-4.18-2.82-5.81-4.83c-1.63-2-2.89-4.28-3.78-6.82C25.94,62.21,25.5,59.63,25.5,57.01L25.5,57.01L25.5,57.01z M15.77,0 h91.34c4.34,0,8.28,1.77,11.14,4.63s4.63,6.8,4.63,11.14v83.29c0,4.34-1.77,8.28-4.63,11.14c-2.86,2.86-6.8,4.63-11.14,4.63H15.77 c-4.34,0-8.28-1.77-11.14-4.63C1.77,107.34,0,103.4,0,99.06V15.77c0-4.34,1.77-8.29,4.63-11.14C7.48,1.77,11.43,0,15.77,0L15.77,0z M107.11,9.91H15.77c-1.61,0-3.07,0.66-4.13,1.72c-1.06,1.06-1.72,2.53-1.72,4.13v83.29c0,1.61,0.66,3.07,1.72,4.13 c1.06,1.06,2.53,1.72,4.13,1.72h91.34c1.61,0,3.07-0.66,4.13-1.72c1.06-1.06,1.72-2.53,1.72-4.13V15.77c0-1.61-0.66-3.07-1.72-4.13 C110.18,10.57,108.72,9.91,107.11,9.91L107.11,9.91z M63.38,57.01c0-2.51,0.42-4.97,1.26-7.4c0.84-2.43,2.07-4.61,3.68-6.54 c1.61-1.93,3.57-3.49,5.87-4.68c2.3-1.2,4.92-1.79,7.87-1.79c3.53,0,6.59,0.82,9.18,2.46c2.59,1.64,4.52,3.81,5.79,6.51l-7.67,6.13 c-0.34-1-0.8-1.83-1.36-2.49c-0.57-0.66-1.19-1.18-1.88-1.56c-0.69-0.39-1.4-0.66-2.14-0.81c-0.74-0.15-1.45-0.23-2.14-0.23 c-1.44,0-2.68,0.32-3.73,0.95c-1.05,0.64-1.9,1.46-2.57,2.49s-1.17,2.18-1.49,3.47c-0.33,1.29-0.49,2.57-0.49,3.85 c0,1.43,0.19,2.8,0.57,4.11c0.38,1.31,0.93,2.47,1.65,3.47c0.72,1,1.6,1.8,2.65,2.4c1.05,0.6,2.22,0.9,3.52,0.9 c0.69,0,1.39-0.09,2.11-0.26c0.72-0.17,1.41-0.46,2.08-0.87c0.67-0.4,1.27-0.93,1.8-1.56c0.53-0.64,0.95-1.42,1.26-2.34l8.18,5.49 c-0.55,1.5-1.38,2.85-2.5,4.05c-1.11,1.2-2.38,2.2-3.81,3.01c-1.42,0.81-2.95,1.43-4.58,1.85c-1.63,0.42-3.22,0.64-4.76,0.64 c-2.71,0-5.19-0.61-7.43-1.82c-2.25-1.21-4.18-2.82-5.81-4.83c-1.63-2-2.89-4.28-3.78-6.82C63.82,62.21,63.37,59.63,63.38,57.01 L63.38,57.01L63.38,57.01z"
       id="path2" /></g><path
     style="fill:#bd7ed8;fill-opacity:1;stroke-width:0.4865678"
     d="M 11.127088,113.85268 C 8.2601423,112.94866 4.8624904,110.45962 3.2030461,108.04769 0.06614981,103.48837 0.19015725,105.72449 0.33847032,56.393209 L 0.47305274,11.628971 1.8110694,9.0907531 C 3.5898502,5.7164068 6.121976,3.265109 9.4324778,1.7126288 L 12.15068,0.43791102 h 49.386632 49.386628 l 2.27503,1.05141948 c 4.84317,2.2382993 8.18647,6.6005516 9.18068,11.9786985 0.31956,1.728645 0.44553,17.951288 0.35467,45.671728 -0.1322,40.331654 -0.1961,43.133613 -1.0331,45.299203 -1.17556,3.04154 -4.71148,6.91231 -7.80551,8.54467 l -2.4852,1.31115 -49.143346,0.0937 c -39.061131,0.0745 -49.552996,-0.0354 -51.140076,-0.53585 z m 98.077022,-9.19508 c 0.96341,-0.33182 2.16261,-1.2894 2.79776,-2.23405 l 1.11163,-1.6533 V 57.513511 c 0,-46.9186 0.10868,-44.988258 -2.63413,-46.785421 C 109.3631,9.9966883 105.02468,9.9259832 61.262489,9.9259832 H 13.269786 l -1.610674,1.6106738 c -1.149269,1.149269 -1.6996628,2.229508 -1.9213163,3.7709 -0.1708535,1.188125 -0.2452375,20.919704 -0.1652988,43.84795 0.1439345,41.283423 0.1551173,41.701053 1.1530671,43.061253 0.554248,0.75544 1.758504,1.75636 2.676123,2.22427 1.554845,0.79283 4.814509,0.84891 47.892341,0.82402 34.486715,-0.02 46.652092,-0.17417 47.910082,-0.60745 z"
     id="path13"
     inkscape:connector-curvature="0" /><path
     style="fill:#bd7ed8;fill-opacity:1;stroke-width:0.4865678"
     d="M 39.312926,77.376671 C 32.602842,75.174174 27.160853,68.14852 26.044932,60.247576 24.54078,49.597883 30.567933,39.79733 40.110663,37.375756 c 5.987255,-1.519333 11.436202,-0.04512 15.745679,4.259996 1.558682,1.557104 2.762937,3.143656 2.676123,3.525671 -0.08681,0.382016 -1.670525,1.896771 -3.519359,3.366123 l -3.361515,2.671548 -1.027294,-1.538769 c -2.671471,-4.001559 -8.896271,-4.369491 -12.297375,-0.726866 -3.64096,3.899514 -3.64096,12.966256 0,16.86577 3.384407,3.624743 9.625798,3.275476 12.270267,-0.68664 l 1.000186,-1.498544 3.388623,2.379325 c 4.597207,3.227933 4.461817,2.989419 2.94189,5.182677 -3.553768,5.128087 -12.650774,8.15829 -18.614962,6.200624 z"
     id="path15"
     inkscape:connector-curvature="0" /><path
     style="fill:#bd7ed8;fill-opacity:1;stroke-width:0.4865678"
     d="M 76.782676,77.176841 C 70.324161,74.862655 65.344246,68.406778 63.93505,60.521397 62.499325,52.48757 66.151301,43.895731 72.839124,39.573182 c 6.433987,-4.158487 15.305024,-3.445076 20.731535,1.667234 1.517573,1.429704 3.267521,4.102487 2.913771,4.450348 -0.08664,0.08519 -1.678384,1.36594 -3.537218,2.846104 l -3.379698,2.691206 -0.858683,-1.41199 c -1.137712,-1.870819 -4.23271,-3.397515 -6.887616,-3.397515 -6.552964,0 -10.472304,8.86366 -7.312195,16.536665 1.383676,3.359678 4.147446,5.358886 7.408301,5.358886 2.69749,0 4.312425,-0.717055 6.161531,-2.735808 l 1.58853,-1.734271 3.698269,2.495566 c 3.693966,2.492662 3.697462,2.497102 3.004941,3.816385 -3.088637,5.883993 -12.923129,9.408947 -19.587916,7.020849 z"
     id="path17"
     inkscape:connector-curvature="0" /></svg>