<svg xmlns="http://www.w3.org/2000/svg" height="512" viewBox="0 0 74 74" width="512"  xmlns:v="https://vecta.io/nano"><text fill="#e84118" font-family="ArialMT, Arial" font-size="18" transform="translate(37.995 -886.544)">2<tspan x="-5.005" y="124">12</tspan><tspan x="-5.005" y="248">22</tspan><tspan x="-5.005" y="372">32</tspan><tspan x="-5.005" y="496">42</tspan><tspan x="-5.005" y="620">52</tspan><tspan x="-5.005" y="744">62</tspan><tspan x="-5.005" y="868">72</tspan><tspan x="-5.005" y="992">82</tspan><tspan x="-5.005" y="1116">92</tspan><tspan x="-10.011" y="1240">102</tspan><tspan letter-spacing="-.074em" x="-9.343" y="1364">1</tspan><tspan x="-0.668" y="1364">12</tspan><tspan x="-10.011" y="1488">122</tspan><tspan x="-10.011" y="1612">132</tspan><tspan x="-10.011" y="1736">142</tspan><tspan x="-10.011" y="1860">152</tspan><tspan x="-10.011" y="1984">162</tspan><tspan x="-10.011" y="2108">172</tspan><tspan x="-10.011" y="2232">182</tspan><tspan x="-10.011" y="2356">192</tspan><tspan x="-10.011" y="2480">202</tspan><tspan x="-10.011" y="2604">212</tspan><tspan x="-10.011" y="2728">222</tspan><tspan x="-10.011" y="2852">232</tspan><tspan x="-10.011" y="2976">242</tspan><tspan x="-10.011" y="3100">252</tspan><tspan x="-10.011" y="3224">262</tspan><tspan x="-10.011" y="3348">272</tspan><tspan x="-10.011" y="3472">282</tspan><tspan x="-10.011" y="3596">292</tspan></text><g fill="#e84118"><path d="M71 46H38v-2h32V4H4v40h26v2H3a1 1 0 0 1-1-1V3a1 1 0 0 1 1-1h68a1 1 0 0 1 1 1v42a1 1 0 0 1-1 1z"/><path d="M3 10h68v2H3z"/><path d="M12 3h2v8h-2zm12 0h2v8h-2zm12 0h2v8h-2zm12 0h2v8h-2zm12 0h2v8h-2zM34.174 36H71v2H34.174zM3 36h23.387v2H3z"/><path d="M12 37h2v8h-2zm12 0h2v8h-2zm12 0h2v6.135h-2zm12 0h2v8h-2z"/><path d="M60 37h2v8h-2zm-9.417 30.874a5.129 5.129 0 1 1 2.138-.472 5.1 5.1 0 0 1-2.138.472zm-.011-8.253a3.126 3.126 0 1 0 2.844 1.818 3.1 3.1 0 0 0-2.845-1.819zM50.581 72a9.275 9.275 0 0 1-8.408-5.386l-4.316-9.369a3.141 3.141 0 0 0-2.182-1.745 5.152 5.152 0 0 1-3.575-2.867l-4.663-10.119c-6.475-14.058-1.679-21.738-1.472-22.058a.981.981 0 0 1 .911-.456 1 1 0 0 1 .836.579l16.38 35.563A9.251 9.251 0 1 1 50.581 72zM26.842 23.472c-.909 2.928-1.772 9.128 2.411 18.205L33.914 51.8a3.144 3.144 0 0 0 2.186 1.744 5.149 5.149 0 0 1 3.578 2.866l4.316 9.369a7.249 7.249 0 1 0 .665-7.223 1 1 0 0 1-1.725-.158zm-3.425 44.402a5.1 5.1 0 0 1-2.138-.472 5.094 5.094 0 1 1 2.138.472zm-1.3-2.288a3.126 3.126 0 1 0-1.532-4.147 3.107 3.107 0 0 0 1.532 4.147z"/><path d="M40.151 51.58l3.227-7.009 1.816.836-3.227 7.009zM23.419 72a9.254 9.254 0 1 1 6.488-15.859L32 51.593l1.816.837-2.745 5.97a1 1 0 0 1-1.725.158 7.254 7.254 0 1 0 .665 7.223l4.316-9.369a5.159 5.159 0 0 1 2.19-2.349l.962 1.753a3.15 3.15 0 0 0-1.335 1.433l-4.316 9.369A9.275 9.275 0 0 1 23.419 72z"/></g></svg>