<svg xmlns="http://www.w3.org/2000/svg" viewBox="0 0 469.389 469.389"  fill="#fff" xmlns:v="https://vecta.io/nano"><path d="M298.841 181.287h106.347c5.333 0 10.133-3.84 10.88-9.067.96-6.613-4.16-12.267-10.56-12.267h-80.96l141.867-141.76c4.053-4.267 3.947-10.987-.213-15.04-4.16-3.947-10.667-3.947-14.827 0l-141.867 141.76V74.941c0-5.333-3.84-10.133-9.067-10.88-6.613-.96-12.267 4.16-12.267 10.56v96c0 5.866 4.8 10.666 10.667 10.666zm-128 106.667H64.494c-5.333 0-10.133 3.84-10.88 9.067-.96 6.613 4.16 12.267 10.56 12.267h80.96L3.268 451.047c-4.267 4.053-4.373 10.88-.213 15.04s10.88 4.373 15.04.213l142.08-141.973v69.867c0 5.333 3.84 10.133 9.067 10.88 6.613.96 12.267-4.16 12.267-10.56v-96c-.001-5.76-4.801-10.56-10.668-10.56z"/><path d="M324.548 309.287h80.533c5.333 0 10.133-3.84 10.88-9.067.96-6.613-4.16-12.267-10.56-12.267h-106.56c-5.867 0-10.667 4.8-10.667 10.667v95.68c0 5.333 3.84 10.133 9.067 10.88 6.613.96 12.267-4.16 12.267-10.56v-70.293l141.76 141.76c4.267 4.053 10.987 3.947 15.04-.213 3.947-4.16 3.947-10.667 0-14.827l-141.76-141.76zM169.241 64.061c-5.227.747-9.067 5.547-9.067 10.88v69.867L18.415 3.047C14.148-1.006 7.428-.899 3.374 3.261c-3.947 4.16-3.947 10.667 0 14.827l141.76 141.867h-80.64c-5.333 0-10.133 3.84-10.88 9.067-.96 6.613 4.16 12.267 10.56 12.267h106.667c5.867 0 10.667-4.8 10.667-10.667v-96c0-6.401-5.653-11.521-12.267-10.561z"/></svg>