<svg xmlns="http://www.w3.org/2000/svg" xmlns:xlink="http://www.w3.org/1999/xlink" viewBox="0 0 512 512" xmlns:v="https://vecta.io/nano"><g fill="#fff"><path d="M256 0c-8.284 0-15 6.716-15 15v70c0 8.284 6.716 15 15 15s15-6.716 15-15V15c0-8.284-6.716-15-15-15z"/><use xlink:href="#B"/><use xlink:href="#B" y="138"/><use xlink:href="#B" y="275"/><path d="M179.402 103.503l-120-36.842c-4.549-1.398-9.491-.552-13.317 2.276A15 15 0 0 0 40 81v350a15 15 0 0 0 6.085 12.063c3.841 2.839 8.787 3.668 13.317 2.275l120-36.842A15 15 0 0 0 190 394.157V117.842a15 15 0 0 0-10.598-14.339zM160 383.071l-90 27.632V101.296l90 27.632v254.143zM465.915 68.937c-3.827-2.828-8.769-3.674-13.317-2.276l-120 36.842A15 15 0 0 0 322 117.842v276.316a15 15 0 0 0 10.598 14.339l120 36.842A15 15 0 0 0 472 431V81a15 15 0 0 0-6.085-12.063zM442 410.704l-90-27.632V128.928l90-27.632v309.408z"/></g><defs ><path id="B" d="M256 137c-8.284 0-15 6.716-15 15v70c0 8.284 6.716 15 15 15s15-6.716 15-15v-70c0-8.284-6.716-15-15-15z"/></defs></svg>