<svg xmlns="http://www.w3.org/2000/svg" xmlns:xlink="http://www.w3.org/1999/xlink" height="682.667" viewBox="0 0 512 512" width="682.667" xmlns:v="https://vecta.io/nano"><g fill="#fff"><path d="M467 0h-30c-8.285 0-15 6.715-15 15s6.715 15 15 15h30c8.27 0 15 6.73 15 15v30c0 8.285 6.715 15 15 15s15-6.715 15-15V45c0-24.812-20.187-45-45-45zm30 422c-8.285 0-15 6.715-15 15v30c0 8.27-6.73 15-15 15h-30c-8.285 0-15 6.715-15 15s6.715 15 15 15h30c24.813 0 45-20.187 45-45v-30c0-8.285-6.715-15-15-15zM75 482H45c-8.27 0-15-6.73-15-15v-30c0-8.285-6.715-15-15-15s-15 6.715-15 15v30c0 24.813 20.188 45 45 45h30c8.285 0 15-6.715 15-15s-6.715-15-15-15zm0 0"/><use xlink:href="#B"/><path d="M241 0H45C20.188 0 0 20.188 0 45v196c0 24.813 20.188 45 45 45h196c24.813 0 45-20.187 45-45V45c0-24.812-20.187-45-45-45zm15 241c0 8.27-6.73 15-15 15H45c-8.27 0-15-6.73-15-15V45c0-8.27 6.73-15 15-15h196c8.27 0 15 6.73 15 15zm91 181c-8.285 0-15 6.715-15 15s6.715 15 15 15h90a15.6 15.6 0 0 0 1.48-.074c.223-.023.441-.066.664-.098.262-.039.527-.066.785-.117s.5-.121.75-.184c.223-.059.449-.105.672-.176.246-.074.484-.164.723-.25.223-.082.445-.152.664-.242.227-.094.441-.203.66-.309s.449-.203.668-.32c.211-.113.414-.242.621-.367.215-.129.43-.25.641-.387.227-.156.441-.324.664-.488.172-.129.348-.25.516-.387a15.15 15.15 0 0 0 2.094-2.094c.141-.172.262-.355.395-.531.16-.215.328-.422.477-.648.145-.215.27-.437.402-.656l.355-.598c.121-.227.223-.461.332-.691.098-.211.207-.422.297-.641s.168-.457.25-.684c.082-.234.172-.461.246-.699.07-.23.121-.469.18-.703s.125-.477.176-.719c.055-.273.086-.551.125-.824.031-.211.07-.418.09-.629a14.61 14.61 0 0 0 .078-1.488V347c0-8.285-6.719-15-15-15s-15 6.715-15 15v53.785l-104.4-104.39a15 15 0 0 0-21.211 0c-5.856 5.859-5.859 15.355 0 21.211L400.785 422zm0 0"/><use xlink:href="#B" x="98"/><use xlink:href="#B" x="196"/><path d="M339 30h30c8.285 0 15-6.715 15-15s-6.715-15-15-15h-30c-8.285 0-15 6.715-15 15s6.715 15 15 15zm0 0"/><use xlink:href="#C"/><path d="M15 384c8.285 0 15-6.715 15-15v-30c0-8.285-6.715-15-15-15s-15 6.715-15 15v30c0 8.285 6.715 15 15 15zm0 0"/><use xlink:href="#C" y="-98"/><use xlink:href="#C" y="-196"/></g><defs ><path id="B" d="M173 482h-30c-8.285 0-15 6.715-15 15s6.715 15 15 15h30c8.285 0 15-6.715 15-15s-6.715-15-15-15zm0 0"/><path id="C" d="M497 324c-8.285 0-15 6.715-15 15v30c0 8.285 6.715 15 15 15s15-6.715 15-15v-30c0-8.285-6.715-15-15-15zm0 0"/></defs></svg>